# xmcd
#
# Track frame offsets: 
#        150
#        10955
#        24140
#        40642
#        54182
#
# Disc length: 889 seconds
#
# Revision: 0
# Processed by: cddbd v1.5.2PL0 Copyright (c) Steve Scherf et al.
# Submitted via: ExactAudioCopy v0.99pb5
#
DISCID=28037705
DTITLE=Jeagers - Tylösand
DYEAR=1996
DGENRE=country
TTITLE0=Tylösand
TTITLE1=Why you been gone so long
TTITLE2=Ge mig en sommar till
TTITLE3=En reko man
TTITLE4=City Girls
EXTD=
EXTT0=
EXTT1=
EXTT2=
EXTT3=
EXTT4=
PLAYORDER=
